<svg xmlns="http://www.w3.org/2000/svg" xmlns:xlink="http://www.w3.org/1999/xlink" width="958" zoomAndPan="magnify" viewBox="0 0 718.5 718.499978" height="958" preserveAspectRatio="xMidYMid meet" version="1.0">
<defs>
<clipPath id="a38994faf5">
<path d="M 0.09375 0.09375 L 717.898438 0.09375 L 717.898438 717.898438 L 0.09375 717.898438 Z M 0.09375 0.09375 " clip-rule="nonzero"/>
</clipPath>
<clipPath id="9f921782d8">
<path d="M 358.996094 0.09375 C 160.78125 0.09375 0.09375 160.78125 0.09375 358.996094 C 0.09375 557.214844 160.78125 717.898438 358.996094 717.898438 C 557.214844 717.898438 717.898438 557.214844 717.898438 358.996094 C 717.898438 160.78125 557.214844 0.09375 358.996094 0.09375 Z M 358.996094 0.09375 " clip-rule="nonzero"/>
</clipPath>
<clipPath id="9d31b3fb60">
<path d="M 179.546875 359 L 538.441406 359 L 538.441406 717.894531 L 179.546875 717.894531 Z M 179.546875 359 " clip-rule="nonzero"/>
</clipPath>
<clipPath id="4fc8dfd34c">
<path d="M 358.996094 359 C 259.886719 359 179.546875 439.339844 179.546875 538.445312 C 179.546875 637.550781 259.886719 717.894531 358.996094 717.894531 C 458.101562 717.894531 538.441406 637.550781 538.441406 538.445312 C 538.441406 439.339844 458.101562 359 358.996094 359 Z M 358.996094 359 " clip-rule="nonzero"/>
</clipPath>
<clipPath id="eaa72beb9f">
<path d="M 269.273438 538.453125 L 448.226562 538.453125 L 448.226562 717.402344 L 269.273438 717.402344 Z M 269.273438 538.453125 " clip-rule="nonzero"/>
</clipPath>
<clipPath id="bdb94ad9ae">
<path d="M 358.992188 538.453125 C 309.441406 538.453125 269.273438 578.621094 269.273438 628.171875 C 269.273438 677.722656 309.441406 717.890625 358.992188 717.890625 C 408.542969 717.890625 448.710938 677.722656 448.710938 628.171875 C 448.710938 578.621094 408.542969 538.453125 358.992188 538.453125 Z M 358.992188 538.453125 " clip-rule="nonzero"/>
</clipPath>
<clipPath id="06444f91e7">
<path d="M 314.136719 628.179688 L 404 628.179688 L 404 718 L 314.136719 718 Z M 314.136719 628.179688 " clip-rule="nonzero"/>
</clipPath>
<clipPath id="8940c3936c">
<path d="M 358.996094 628.179688 C 334.222656 628.179688 314.136719 648.261719 314.136719 673.039062 C 314.136719 697.8125 334.222656 717.898438 358.996094 717.898438 C 383.773438 717.898438 403.855469 697.8125 403.855469 673.039062 C 403.855469 648.261719 383.773438 628.179688 358.996094 628.179688 Z M 358.996094 628.179688 " clip-rule="nonzero"/>
</clipPath>
</defs>
<g clip-path="url(#a38994faf5)">
<g clip-path="url(#9f921782d8)">
<path stroke-linecap="butt" transform="matrix(1.1115, 0, 0, 1.1115, 0.0953243, 0.0953133)" fill="none" stroke-linejoin="miter" d="M 322.897566 -0.00140651 C 144.566685 -0.00140651 -0.0014164 144.566695 -0.0014164 322.897576 C -0.0014164 501.231973 144.566685 645.796559 322.897566 645.796559 C 501.231963 645.796559 645.796549 501.231973 645.796549 322.897576 C 645.796549 144.566695 501.231963 -0.00140651 322.897566 -0.00140651 Z M 322.897566 -0.00140651 " stroke="#000000" stroke-width="6" stroke-opacity="1" stroke-miterlimit="4"/>
</g>
</g>
<g clip-path="url(#9d31b3fb60)">
<g clip-path="url(#4fc8dfd34c)">
<path stroke-linecap="butt" transform="matrix(1.1115, 0, 0, 1.1115, 179.547733, 359.000148)" fill="none" stroke-linejoin="miter" d="M 161.446963 -0.000133065 C 72.283279 -0.000133065 -0.00077156 72.280403 -0.00077156 161.444087 C -0.00077156 250.60777 72.283279 322.891821 161.446963 322.891821 C 250.610646 322.891821 322.891183 250.60777 322.891183 161.444087 C 322.891183 72.280403 250.610646 -0.000133065 161.446963 -0.000133065 Z M 161.446963 -0.000133065 " stroke="#000000" stroke-width="9" stroke-opacity="1" stroke-miterlimit="4"/>
</g>
</g>
<g clip-path="url(#eaa72beb9f)">
<g clip-path="url(#bdb94ad9ae)">
<path stroke-linecap="butt" transform="matrix(1.1115, 0, 0, 1.1115, 269.273923, 538.452567)" fill="none" stroke-linejoin="miter" d="M 80.718159 0.000502007 C 36.138074 0.000502007 -0.000436763 36.139013 -0.000436763 80.719098 C -0.000436763 125.299182 36.138074 161.437693 80.718159 161.437693 C 125.298243 161.437693 161.436754 125.299182 161.436754 80.719098 C 161.436754 36.139013 125.298243 0.000502007 80.718159 0.000502007 Z M 80.718159 0.000502007 " stroke="#000000" stroke-width="12" stroke-opacity="1" stroke-miterlimit="4"/>
</g>
</g>
<g clip-path="url(#06444f91e7)">
<g clip-path="url(#8940c3936c)">
<path stroke-linecap="butt" transform="matrix(1.1115, 0, 0, 1.1115, 314.137028, 628.178777)" fill="none" stroke-linejoin="miter" d="M 40.35902 0.000819543 C 18.070735 0.000819543 -0.000277994 18.068318 -0.000277994 40.360117 C -0.000277994 62.648402 18.070735 80.719415 40.35902 80.719415 C 62.650819 80.719415 80.718318 62.648402 80.718318 40.360117 C 80.718318 18.068318 62.650819 0.000819543 40.35902 0.000819543 Z M 40.35902 0.000819543 " stroke="#000000" stroke-width="15" stroke-opacity="1" stroke-miterlimit="4"/>
</g>
</g>
</svg>
