<svg xmlns="http://www.w3.org/2000/svg" xmlns:xlink="http://www.w3.org/1999/xlink" width="412" zoomAndPan="magnify" viewBox="0 0 309 294.749989" height="393" preserveAspectRatio="xMidYMid meet" version="1.0">
<defs>
<clipPath id="d2bdcb46e7">
<path d="M 99 161 L 110 161 L 110 294.5 L 99 294.5 Z M 99 161 " clip-rule="nonzero"/>
</clipPath>
<clipPath id="fca3697863">
<path d="M 0.132812 200 L 11 200 L 11 294.5 L 0.132812 294.5 Z M 0.132812 200 " clip-rule="nonzero"/>
</clipPath>
<clipPath id="b133d55303">
<path d="M 199 108 L 209 108 L 209 294.5 L 199 294.5 Z M 199 108 " clip-rule="nonzero"/>
</clipPath>
<clipPath id="199857b184">
<path d="M 298 0 L 308.867188 0 L 308.867188 294.5 L 298 294.5 Z M 298 0 " clip-rule="nonzero"/>
</clipPath>
</defs>
<g clip-path="url(#d2bdcb46e7)">
<path stroke-linecap="butt" transform="matrix(0, 0.749364, -0.749364, 0, 109.550406, 166.76076)" fill="none" stroke-linejoin="miter" d="M 0.00127943 6.4998 L 170.432184 6.4998 " stroke="#000000" stroke-width="13" stroke-opacity="1" stroke-miterlimit="4"/>
</g>
<g clip-path="url(#fca3697863)">
<path stroke-linecap="butt" transform="matrix(0, 0.749364, -0.749364, 0, 10.160829, 205.263146)" fill="none" stroke-linejoin="miter" d="M -0.00190417 6.501198 L 119.046911 6.501198 " stroke="#000000" stroke-width="13" stroke-opacity="1" stroke-miterlimit="4"/>
</g>
<g clip-path="url(#b133d55303)">
<path stroke-linecap="butt" transform="matrix(0, 0.749364, -0.749364, 0, 208.943392, 113.286223)" fill="none" stroke-linejoin="miter" d="M -0.001424 6.497739 L 241.792047 6.497739 " stroke="#000000" stroke-width="13" stroke-opacity="1" stroke-miterlimit="4"/>
</g>
<g clip-path="url(#199857b184)">
<path stroke-linecap="butt" transform="matrix(0, 0.749364, -0.749364, 0, 308.340571, 0.27651)" fill="none" stroke-linejoin="miter" d="M 0.00111285 6.501271 L 392.594267 6.501271 " stroke="#0faf1b" stroke-width="13" stroke-opacity="1" stroke-miterlimit="4"/>
</g>
</svg>
